<!--?xml version="1.0" encoding="utf-8"?-->
<!-- Generator: Adobe Illustrator 21.1.0, SVG Export Plug-In . SVG Version: 6.00 Build 0)  -->
<svg version="1.1" id="_x31_0" xmlns="http://www.w3.org/2000/svg" xmlns:xlink="http://www.w3.org/1999/xlink" x="0px" y="0px" viewBox="0 0 512 512" style="width: 512px; height: 512px; opacity: 1;" xml:space="preserve">
<style type="text/css">
	.st0{fill:#374149;}
</style>
<g>
	<path class="st0" d="M381.558,238.871c-1.613-3.934-3.41-7.77-5.266-11.57c-0.382-0.785-0.703-1.594-1.098-2.375
		c-1.82-3.613-3.82-7.117-5.855-10.598c-0.543-0.934-1.016-1.902-1.578-2.828c-1.676-2.766-3.519-5.418-5.324-8.09
		c-1.047-1.551-1.988-3.153-3.078-4.676l-0.011,0.012c-0.016-0.024-0.031-0.047-0.047-0.07l-41.641,41.648
		c13.242,21.344,20.821,46.559,20.821,73.516c0,77.504-62.817,140.32-140.321,140.32c-77.449,0-140.32-62.816-140.32-140.32
		c0-77.508,62.871-140.321,140.32-140.321c26.954,0,52.172,7.574,73.516,20.821l35.886-35.887l5.711-5.691
		c0,0-0.008-0.004-0.012-0.008l0.058-0.058c-32.449-23.309-72.242-37.015-115.16-37.015C88.898,115.68,0,204.578,0,313.84
		S88.898,512,198.16,512s198.16-88.898,198.16-198.16c0-25.922-5.074-50.664-14.168-73.375
		C381.942,239.938,381.774,239.394,381.558,238.871z" style="fill: rgb(75, 75, 75);"></path>
	<path class="st0" d="M198.16,219.793c-51.824,0-94.046,42.164-94.046,94.047c0,51.824,42.222,94.046,94.046,94.046
		c51.883,0,94.047-42.222,94.047-94.046c0-12.379-2.5-24.157-6.898-34.981c-0.578-1.449-1.07-2.93-1.723-4.355l-0.023,0.027
		c-0.012-0.027-0.019-0.054-0.031-0.082l-37.652,37.656c0.054,0.574,0.054,1.156,0.054,1.734c0,26.316-21.398,47.774-47.774,47.774
		c-26.316,0-47.774-21.458-47.774-47.774c0-26.317,21.458-47.778,47.774-47.778c0.578,0,1.157,0,1.734,0.058l28.016-28.015
		l9.606-9.562c-0.012-0.008-0.02-0.008-0.028-0.012l0.062-0.062C225.578,222.855,212.215,219.793,198.16,219.793z" style="fill: rgb(75, 75, 75);"></path>
	<polygon class="st0" points="345.883,120.129 406.039,59.977 415.117,50.898 424.199,41.813 414.199,12.774 409.851,0.054 
		409.824,0.082 409.797,0 322.402,87.453 336.805,129.215 	" style="fill: rgb(75, 75, 75);"></polygon>
	<polygon class="st0" points="511.938,102.266 512,102.203 470.242,87.797 462.086,95.894 452.019,105.961 391.867,166.114 
		388.586,169.394 382.41,175.363 382.473,175.386 382.383,175.442 424.199,189.844 485.504,128.649 511.973,102.278 	" style="fill: rgb(75, 75, 75);"></polygon>
	<path class="st0" d="M192.778,301.867c-4.797,4.797-4.797,12.606,0,17.41c2.258,2.312,5.324,3.586,8.621,3.586
		c3.355,0,6.418-1.274,8.734-3.586L445.715,83.637l-17.219-17.222l-0.078-0.074l0,0l-0.054-0.055L192.778,301.867z" style="fill: rgb(75, 75, 75);"></path>
</g>
</svg>
