<!--?xml version="1.0" encoding="utf-8"?-->
<!-- Generator: Adobe Illustrator 19.1.1, SVG Export Plug-In . SVG Version: 6.00 Build 0)  -->
<svg version="1.1" id="_x31_0" xmlns="http://www.w3.org/2000/svg" xmlns:xlink="http://www.w3.org/1999/xlink" x="0px" y="0px" viewBox="0 0 512 512" style="width: 512px; height: 512px; opacity: 1;" xml:space="preserve">
<style type="text/css">
	.st0{fill:#374149;}
</style>
<g>
	<path class="st0" d="M383.801,135.767c0.653,0.515,1.434,0.906,2.363,1.129c0.926,0.218,1.805,0.218,2.618,0.05
		c0.824-0.214,1.515-0.515,2.133-0.938c0.422-0.262,0.758-0.594,1.058-0.988c0.348-0.382,0.633-0.934,0.942-1.582
		c0.262-0.66,0.566-1.515,0.918-2.566c0.305-1.062,0.676-2.418,1.07-4.082c0.394-1.656,0.657-2.988,0.875-4.125
		c0.156-1.094,0.266-2,0.344-2.754c0.015-0.718,0.007-1.34-0.133-1.836c-0.094-0.488-0.242-0.934-0.504-1.355
		c-0.363-0.656-0.844-1.234-1.496-1.75c-0.649-0.516-1.434-0.906-2.363-1.126c-0.926-0.222-1.801-0.222-2.618-0.054
		c-0.813,0.168-1.55,0.457-2.168,0.879c-0.422,0.262-0.758,0.594-1.058,0.988c-0.348,0.382-0.633,0.93-0.942,1.582
		c-0.32,0.696-0.578,1.563-0.882,2.63c-0.313,1.109-0.676,2.418-1.07,4.078c-0.391,1.66-0.668,3.039-0.875,4.126
		c-0.203,1.086-0.363,1.976-0.379,2.695c-0.015,0.718-0.007,1.336,0.133,1.836c0.09,0.484,0.242,0.934,0.504,1.355
		C382.629,134.611,383.16,135.205,383.801,135.767z" style="fill: rgb(75, 75, 75);"></path>
	<path class="st0" d="M495.066,89.162l-94.535-22.422l-21.926-5.238v0.038l-0.164-0.038v47.706l-0.015,5.074
		c0.003-0.008,0.011-0.015,0.015-0.027v0.418c0.066-0.133,0.066-0.195,0.133-0.328c0.453-1.039,1.039-1.949,1.758-2.797
		c0.649-0.847,1.559-1.562,2.602-2.21c1.496-0.914,2.993-1.5,4.688-1.758c1.558-0.262,3.449-0.195,5.398,0.325
		c2.019,0.457,3.644,1.171,5.011,2.148c0.43,0.32,0.801,0.699,1.188,1.066c0.406,0.39,0.785,0.813,1.133,1.246
		c0.343,0.43,0.699,0.836,1,1.332c0.652,1.039,1.106,2.082,1.367,3.125c0.258,1.106,0.39,2.145,0.324,3.317
		c-0.066,1.171-0.195,2.472-0.453,3.777c-0.262,1.367-0.586,2.797-0.977,4.489c-0.39,1.629-0.782,3.125-1.11,4.426
		c-0.39,1.301-0.781,2.473-1.301,3.515c-0.457,1.106-1.043,2.016-1.758,2.863c-0.715,0.782-1.558,1.563-2.668,2.211
		c-1.43,0.91-2.992,1.434-4.554,1.758c-1.692,0.262-3.45,0.129-5.469-0.324c-2.016-0.457-3.707-1.172-5.008-2.148
		c-0.371-0.317-0.722-0.614-1.054-0.95c-0.028-0.074-0.086-0.133-0.086-0.222l-0.004,0.144c-0.046-0.05-0.109-0.09-0.16-0.144
		v26.812l84.215,19.981l-20.762,87.535l-51.504-12.203l-11.786-2.832l-0.004,0.039l-0.16-0.039v10.348l61.114,14.511l-20.622,87.219
		l-0.078,0.316l-32.688-7.738l-7.562-1.828l-0.004,0.035l-0.16-0.035v10.282l38.074,9.046l-19.461,82.066l-42.562-10.086
		c-7.094,4.164-15.36,6.57-24.145,6.57H290.45l-38.68-0.156l0.653,0.156h-0.692l147.278,34.882
		c11.844,2.801,23.754-4.488,26.554-16.335l85.84-362.43C514.199,103.869,506.911,91.959,495.066,89.162z M430.962,131.4
		l3.277-3.934l1.957-2.203l1.731,7.828l4.781,1.879l2.734,1.171l-6.93,4.106l-0.332,5.192l-0.274,2.87l-6.031-5.199l-5.004,1.242
		l-2.828,0.61l3.145-7.383l-2.754-4.312l-1.492-2.512L430.962,131.4z" style="fill: rgb(75, 75, 75);"></path>
	<path class="st0" d="M397.762,226.861L397.762,226.861L397.762,226.861l-0.156-0.035c-0.43,1.805-0.469,3.5-0.133,4.918
		c0.321,1.469,0.894,2.742,1.726,3.813c0.282,0.39,0.742,0.606,1.082,0.938c0.262,0.258,0.55,0.508,0.859,0.742
		c0.414,0.32,0.719,0.758,1.184,1.023c1.273,0.715,2.594,1.234,4.058,1.582c1.515,0.355,2.977,0.496,4.449,0.382
		c1.462-0.066,2.794-0.473,4.028-1.11s2.32-1.511,3.218-2.691c0.898-1.18,1.562-2.676,1.965-4.382
		c0.512-2.149,0.477-3.966-0.102-5.442c-0.477-1.137-1.199-1.981-1.93-2.817c-0.203-0.285-0.336-0.613-0.554-0.894
		c1.246-0.324,2.414-0.965,3.461-1.938c1.046-0.938,1.797-2.359,2.262-4.312c0.348-1.465,0.379-2.902,0.176-4.238
		c-0.246-1.348-0.723-2.598-1.481-3.758c-0.77-1.109-1.73-2.058-2.934-2.859c-1.203-0.801-2.562-1.382-4.125-1.75
		c-1.512-0.359-2.926-0.489-4.359-0.313c-1.375,0.141-2.707,0.543-3.832,1.156c-1.188,0.645-2.211,1.485-3.051,2.63
		c-0.691,0.855-1.121,1.992-1.523,3.152c-0.102,0.246-0.266,0.426-0.359,0.672l0.031,0.008c-0.016,0.058-0.055,0.09-0.07,0.148
		l6.445,1.527c0.363-1.308,1.055-2.277,2.012-2.824c1.004-0.535,2.121-0.683,3.344-0.394c1.172,0.278,2.054,0.898,2.75,1.89
		c0.657,0.93,0.828,2.156,0.473,3.668c-0.289,1.222-0.886,2.215-1.77,2.883c-0.879,0.668-2.156,0.832-3.718,0.461l-0.77-0.184l0,0
		l0,0l-0.157-0.035l-1.32,5.566l0.926,0.219c1.566,0.371,2.68,1.098,3.352,2.187c0.621,1.074,0.785,2.352,0.426,3.867
		c-0.371,1.562-1.102,2.676-2.176,3.301c-1.074,0.622-2.351,0.782-3.718,0.457c-0.637-0.148-1.199-0.386-1.738-0.718
		c-0.551-0.285-0.969-0.695-1.317-1.191c-0.347-0.492-0.586-1.016-0.691-1.657c-0.152-0.656-0.137-1.374,0.047-2.156
		L397.762,226.861z" style="fill: rgb(75, 75, 75);"></path>
	<path class="st0" d="M391.262,297.873l-11.062,13.472c-0.648,0.782-1.234,1.497-1.758,2.211v17.641
		c0.262,0.324,0.523,0.453,0.782,0.648c1.171,0.782,2.605,1.367,4.164,1.758c1.562,0.324,3.062,0.453,4.492,0.262
		c1.496-0.195,2.801-0.586,4.035-1.305c1.172-0.778,2.214-1.691,3.125-2.926c0.848-1.172,1.562-2.668,1.954-4.426
		c0.39-1.63,0.453-3.126,0.258-4.622c-0.195-1.367-0.649-2.668-1.301-3.774c-0.649-1.042-1.496-1.953-2.473-2.734
		c-0.977-0.718-2.082-1.238-3.32-1.562c-0.391-0.066-0.782-0.129-1.301-0.195c-0.297,0-0.59,0.023-0.887,0.043
		c-0.141-0.02-0.258-0.012-0.414-0.055l7.332-8.702l3.367-3.887l-0.074-0.019l0.114-0.137L391.262,297.873z M390.547,323.712
		c-0.39,1.692-1.172,2.798-2.211,3.512c-1.042,0.653-2.214,0.848-3.582,0.52c-1.301-0.258-2.34-0.977-2.926-2.082
		c-0.652-1.106-0.781-2.406-0.39-4.098c0.39-1.695,1.106-2.863,2.211-3.516c1.043-0.652,2.214-0.843,3.582-0.519
		c1.367,0.324,2.34,1.039,2.993,2.148C390.809,320.783,390.871,322.15,390.547,323.712z" style="fill: rgb(75, 75, 75);"></path>
	<path class="st0" d="M122.223,79.529h-7.16v8.722h7.16c1.497,0,2.602-0.39,3.45-1.172c0.782-0.781,1.168-1.824,1.168-3.191
		c0-1.367-0.386-2.473-1.168-3.187C124.824,79.919,123.719,79.529,122.223,79.529z" style="fill: rgb(75, 75, 75);"></path>
	<path class="st0" d="M241.188,69.767c-0.13-0.715-0.325-1.301-0.586-1.758c-0.195-0.453-0.453-0.843-0.781-1.234
		c-0.52-0.523-1.106-0.976-1.821-1.367c-0.781-0.328-1.629-0.523-2.606-0.523c-0.91,0-1.82,0.195-2.535,0.523
		c-0.781,0.391-1.434,0.844-1.886,1.367c-0.39,0.391-0.652,0.782-0.848,1.234c-0.262,0.458-0.39,1.043-0.519,1.758
		c-0.195,0.714-0.195,1.625-0.262,2.734c-0.066,1.171-0.129,2.535-0.129,4.23c0,0.972,0,1.886,0.062,2.668
		c0,0.586,0.066,1.105,0.066,1.562c0.066,1.106,0.066,2.015,0.262,2.668c0.129,0.714,0.258,1.301,0.519,1.754
		c0.196,0.457,0.458,0.914,0.848,1.238c0.453,0.519,1.106,0.977,1.886,1.434c0.715,0.324,1.626,0.519,2.535,0.519
		c0.977,0,1.825-0.195,2.606-0.519c0.52-0.328,0.977-0.652,1.367-1.043c0.195-0.129,0.324-0.262,0.454-0.39
		c0.328-0.324,0.586-0.782,0.781-1.238c0.262-0.453,0.457-1.039,0.586-1.754c0.066-0.653,0.195-1.562,0.324-2.668
		c0-1.11,0.066-2.539,0.066-4.23c0-1.695-0.066-3.059-0.066-4.23C241.383,71.392,241.255,70.482,241.188,69.767z" style="fill: rgb(75, 75, 75);"></path>
	<path class="st0" d="M125.149,72.239c0.847-0.714,1.238-1.691,1.238-2.93c0-1.234-0.39-2.277-1.238-2.992
		c-0.782-0.714-1.887-1.106-3.317-1.106h-6.77v8.133h6.77C123.262,73.345,124.367,72.955,125.149,72.239z" style="fill: rgb(75, 75, 75);"></path>
	<path class="st0" d="M301.258,433.502h10.348h18.742c12.172,0,22.062-9.89,22.062-21.996v-45.754v-10.281V262.99v-45.359v-57.402
		v-25.055v-6.769v-15.489v-11.453V55.318v-16.27c0-12.168-9.89-22.062-22.062-22.062H21.996C9.895,16.986,0,26.88,0,39.048v372.458
		c0,12.106,9.894,21.996,21.996,21.996h119.879h130.617H301.258z M281.391,65.767l3.532,7.125l5.094,0.778l2.894,0.538l-5.774,5.582
		l0.782,4.554l0.374,2.226l0.118,1.172l-7.066-3.66l-5.207,2.668l-0.766,0.394l-1.238,0.371l1.29-7.207l0.062-0.519l-3.692-3.57
		l-2.05-2.11l7.957-1.218l2.332-4.629L281.391,65.767z M321.239,319.091v29.023v44.778v10.543h-2.473h-10.347h-34.039h-15.489
		h-27.66v-64.625v-19.719h4.688H321.239z M296.899,209.041h-34.882h-10.348h-20.438v-77.578v-12.43h61.958h7.094h8.461h7.16h5.336
		v33.777v31.106v13.344v11.782h-15.621H296.899z M248.411,81.287c-0.062,1.367-0.191,2.602-0.454,3.774
		c-0.195,1.172-0.586,2.148-1.042,3.191c-0.52,0.91-1.168,1.82-2.082,2.73c-1.172,1.238-2.539,2.082-4.035,2.734
		c-1.562,0.653-3.316,0.977-5.402,0.977c-0.586,0-1.105,0-1.625-0.129c-1.367-0.066-2.602-0.391-3.711-0.848
		c-1.562-0.652-2.93-1.496-4.164-2.734c-0.847-0.91-1.562-1.82-2.015-2.73c-0.523-1.043-0.848-2.019-1.043-3.191
		c-0.129-0.782-0.262-1.562-0.324-2.473c-0.066-0.39-0.133-0.844-0.133-1.301v-9.114c0.066-1.367,0.262-2.602,0.457-3.773
		c0.195-1.172,0.52-2.149,1.043-3.188c0.453-0.914,1.168-1.824,2.015-2.734c1.234-1.238,2.602-2.082,4.164-2.734
		c1.5-0.648,3.321-0.976,5.336-0.976c2.086,0,3.84,0.328,5.402,0.976c1.496,0.653,2.863,1.496,4.035,2.734
		c0.914,0.91,1.562,1.821,2.082,2.734c0.457,1.039,0.847,2.016,1.042,3.188c0.262,1.171,0.391,2.406,0.454,3.773
		c0.066,1.367,0.066,2.864,0.066,4.559C248.477,78.423,248.477,79.919,248.411,81.287z M321.239,309.068h-28.703h-11.191h-43.02
		h-7.094v-13.73v-61.047v-10.282v-4.949h18.094h10.282h61.633v26.23v10.282V308.9V309.068z M71.118,65.767l3.531,7.125l5.109,0.781
		l2.879,0.531l-5.711,5.586l0.875,5.125l0.394,2.828l-7.129-3.66l-4.586,2.355l-2.618,1.242l1.348-7.89l-3.676-3.594l-2.004-2.086
		l7.957-1.218l2.27-4.578L71.118,65.767z M121.18,319.091v50.176v28.375v5.793H82.067H31.11v-84.344h69.894H121.18z M121.18,309.068
		h-17.766H31.11V219.06h90.07v14.969v74.969V309.068z M121.18,209.041H31.223H31.11v-90.008h90.07v89.89V209.041z M129.219,60.907
		c0.374,0.25,0.754,0.493,1.074,0.79c0.977,0.847,1.754,1.886,2.211,3.058c0.519,1.172,0.782,2.539,0.782,4.035
		c0,2.836-1.11,4.996-3.133,6.59c-0.379,0.258-0.719,0.543-1.165,0.75c0.028,0.011,0.051,0.031,0.074,0.042
		c-0.05,0.031-0.086,0.07-0.137,0.102c0.715,0.325,1.172,0.715,1.562,0.977c0.391,0.258,0.715,0.519,1.106,0.91
		c0.782,0.847,1.301,1.758,1.692,2.734c0.324,0.976,0.519,2.082,0.519,3.382c0,1.562-0.258,2.93-0.782,4.168
		c-0.519,1.301-1.234,2.34-2.144,3.188c-0.977,0.91-2.086,1.562-3.454,2.082c-1.301,0.457-2.859,0.653-4.488,0.653h-14.84V59.095
		h14.254c1.629,0,3.125,0.195,4.488,0.648c0.504,0.16,0.922,0.375,1.347,0.582C128.547,60.502,128.899,60.693,129.219,60.907z
		 M140.836,94.369V59.095h6.898v35.274H140.836z M175.95,80.701v-0.246l0.16,0.246V59.095h6.961v35.274h-6.183l-13.989-21.672
		v21.672h-6.965v-6.965V59.095h6.18l0.39,0.586l7.344,11.348L175.95,80.701z M216.43,70.025h-7
		c-0.714-3.383-2.863-5.141-6.312-5.141c-0.91,0-1.758,0.195-2.539,0.523c-0.715,0.391-1.367,0.844-1.887,1.367
		c-0.328,0.391-0.586,0.782-0.847,1.234c-0.195,0.458-0.39,1.043-0.454,1.758c-0.195,0.714-0.262,1.625-0.328,2.734
		C197,73.673,197,75.037,197,76.732c0,1.691,0,3.121,0.062,4.23c0.066,1.106,0.133,2.015,0.328,2.73
		c0.063,0.714,0.258,1.301,0.454,1.758c0.262,0.457,0.519,0.91,0.847,1.238c0.52,0.586,1.172,1.039,1.887,1.367
		c0.781,0.324,1.629,0.519,2.539,0.519c1.105,0,2.015-0.195,2.863-0.519c0.843-0.39,1.496-0.848,2.082-1.5
		c0.52-0.649,0.977-1.367,1.172-2.149c0.262-0.777,0.39-1.625,0.39-2.535v-1.136v-0.004l0,0v-0.161h-6.507v-5.859h13.339v5.207
		c0,2.539-0.195,4.621-0.648,6.313c-0.523,1.629-1.434,3.125-2.672,4.426c-1.496,1.562-3.054,2.602-4.75,3.187
		c-0.551,0.199-1.137,0.313-1.719,0.438c-0.543,0.122-1.113,0.211-1.695,0.274c-0.61,0.062-1.215,0.137-1.855,0.137
		c-2.02,0-3.778-0.324-5.274-0.977c-1.562-0.652-2.926-1.496-4.164-2.734c-0.91-0.91-1.562-1.82-2.02-2.73
		c-0.519-1.043-0.843-2.019-1.038-3.191c-0.262-1.172-0.391-2.406-0.458-3.774c0-1.367-0.062-2.863-0.062-4.554
		c0-1.695,0.062-3.192,0.062-4.559c0.066-1.367,0.195-2.602,0.458-3.773c0.195-1.172,0.519-2.149,1.038-3.188
		c0.458-0.914,1.11-1.824,2.02-2.734c1.238-1.238,2.602-2.082,4.164-2.734c1.496-0.648,3.254-0.976,5.274-0.976
		c2.082,0,3.902,0.328,5.465,0.976c1.562,0.586,2.863,1.434,3.969,2.473c1.042,1.043,1.953,2.215,2.605,3.582
		c0.622,1.301,0.981,2.664,1.242,4.031C216.403,69.9,216.426,69.955,216.43,70.025z M131.203,400.048v-73.082v-7.875h1.886h22.321
		h43.539h22.258v5.27v10.348v2.863v43.539v22.324h-5.27H205.59h-60.003h-14.383V400.048z M221.207,221.599v10.347v77.122h-64.625
		h-25.379V219.06h25.574h10.156h43.539h10.734V221.599z M221.207,129.119v79.922h-53.039h-36.965v-17.313v-72.695h17.246h72.758
		V129.119z" style="fill: rgb(75, 75, 75);"></path>
	<polygon class="st0" points="78.747,147.763 78.747,147.763 78.747,147.603 72.11,147.603 64.691,153.982 64.691,158.189 
		64.586,160.955 64.691,160.869 64.691,161.075 69.235,157.17 72.11,154.826 72.11,183.787 78.747,183.787 78.747,147.872 	" style="fill: rgb(75, 75, 75);"></polygon>
	<path class="st0" d="M178.711,162.181l-11.649,13.473v0.062l-1.886,2.149v5.746v0.016l0,0v0.031v0.129h22.062v-5.922h-8.516
		l-5.39-0.102l10-11.676c0.653-0.652,1.172-1.367,1.625-1.953c0.524-0.653,0.914-1.305,1.238-1.954
		c0.325-0.652,0.586-1.367,0.715-2.015c0.195-0.653,0.328-1.5,0.328-2.344c0-1.629-0.328-3.125-0.848-4.426
		c-0.519-1.301-1.301-2.41-2.277-3.321c-0.977-0.847-2.082-1.562-3.45-2.082c-1.367-0.457-2.863-0.715-4.426-0.715
		c-0.848,0-1.691,0.062-2.473,0.195c-0.652,0.13-1.238,0.258-1.886,0.52c-1.367,0.457-2.539,1.172-3.516,2.082
		c-1.039,0.91-1.758,2.02-2.343,3.321c-0.555,1.23-0.798,2.652-0.825,4.234c-0.004,0.035-0.019,0.058-0.019,0.094h0.012
		c0,0.058-0.012,0.106-0.012,0.16h6.117h0.454c0-0.91,0.195-1.625,0.457-2.278c0.195-0.519,0.586-1.038,0.977-1.367
		c0.457-0.39,0.91-0.648,1.434-0.781c0.519-0.129,1.039-0.258,1.625-0.258c1.43,0,2.539,0.453,3.187,1.301
		c0.782,0.847,1.172,1.886,1.172,3.254c0,0.848-0.129,1.562-0.453,2.215C179.817,160.619,179.426,161.334,178.711,162.181z" style="fill: rgb(75, 75, 75);"></path>
	<path class="st0" d="M285.891,165.232c-0.078-0.066-0.129-0.149-0.21-0.215c1.152-0.586,2.117-1.484,2.953-2.641
		c0.782-1.171,1.172-2.734,1.172-4.75c0-1.5-0.262-2.93-0.781-4.168c-0.586-1.234-1.301-2.34-2.344-3.317
		c-0.363-0.339-0.894-0.503-1.309-0.777c-0.23-0.149-0.481-0.297-0.734-0.434c-0.504-0.274-0.898-0.657-1.473-0.871
		c-1.301-0.523-2.797-0.782-4.426-0.782c-0.714,0-1.43,0.062-2.145,0.129c-0.718,0.13-1.434,0.325-2.148,0.586
		c-1.301,0.457-2.473,1.172-3.45,2.015c-0.976,0.914-1.824,1.954-2.343,3.258c-0.61,1.156-0.86,2.554-0.942,4.007
		c-0.008,0.051-0.027,0.078-0.035,0.126h0.019c-0.004,0.054-0.015,0.106-0.019,0.16h6.508h0.133c0-0.324,0.062-0.653,0.129-0.91
		c0.195-0.91,0.586-1.691,1.172-2.277c0.843-0.782,1.886-1.172,3.121-1.172c1.238,0,2.215,0.39,3.125,1.234
		c0.848,0.718,1.301,1.886,1.301,3.449c0,1.238-0.324,2.344-1.039,3.191c-0.718,0.844-1.886,1.301-3.515,1.301h-0.91v5.531v0.035
		l0,0v0.161h0.91c1.629,0,2.863,0.457,3.774,1.367c0.847,0.91,1.305,2.148,1.305,3.644c0,1.629-0.458,2.863-1.367,3.711
		c-0.914,0.91-2.082,1.363-3.516,1.363c-0.652,0-1.238-0.129-1.824-0.324c-0.649-0.129-1.106-0.458-1.558-0.848
		c-0.458-0.386-0.848-0.844-1.043-1.496c-0.324-0.582-0.454-1.301-0.454-2.082h-3.515h-3.125c0,1.89,0.324,3.515,0.976,4.816
		c0.195,0.39,0.391,0.782,0.715,1.172c0,0,0,0,0,0.066c0.519,0.844,1.106,1.496,1.886,2.082c1.043,0.91,2.282,1.497,3.645,1.887
		c1.434,0.39,2.801,0.652,4.297,0.652c1.562,0,3.058-0.262,4.426-0.652c1.43-0.457,2.602-1.106,3.645-2.016
		c1.106-0.914,1.953-2.019,2.539-3.386c0.586-1.367,0.91-2.93,0.91-4.684c0-2.214-0.457-3.972-1.366-5.273
		C288.051,166.838,287.024,165.931,285.891,165.232z" style="fill: rgb(75, 75, 75);"></path>
	<polygon class="st0" points="82.195,262.326 82.199,262.307 82.195,262.307 82.195,262.146 76.063,262.146 76.043,262.142 
		76.043,262.146 75.883,262.146 75.883,268.911 70.531,268.911 68.301,268.845 76.84,251.775 80.699,244.212 80.621,244.212 
		80.699,244.052 73.477,244.052 61.047,268.911 61.047,274.963 61.043,275.002 61.047,275.002 61.047,275.162 75.883,275.162 
		75.883,280.111 75.883,280.143 75.883,280.143 75.883,280.303 82.195,280.303 82.195,275.162 85.516,275.162 85.516,268.911 
		82.195,268.911 	" style="fill: rgb(75, 75, 75);"></polygon>
	<path class="st0" d="M286.419,261.427c-0.844-0.91-1.954-1.625-3.059-2.082c-1.105-0.519-2.277-0.781-3.511-0.781
		c-0.458,0-0.848,0.066-1.367,0.133c-0.394,0.054-0.774,0.168-1.125,0.281c-0.047-0.003-0.098-0.007-0.149-0.015l6.152-12.309
		l0.856-1.707l0.445-0.734h-0.078l0.078-0.16h-7.222l-0.519,1.043l-7.094,14.641c-0.847,1.691-1.562,3.32-2.148,4.882
		c-0.586,1.496-0.91,3.122-0.91,4.817c0,1.754,0.262,3.382,0.844,4.75c0.586,1.367,1.367,2.535,2.41,3.512
		c1.038,0.914,2.21,1.695,3.578,2.148c1.367,0.524,2.863,0.782,4.493,0.782c0.91,0,1.758-0.062,2.601-0.258
		c0.653-0.133,1.238-0.328,1.825-0.524c1.363-0.519,2.602-1.234,3.578-2.21c0.41-0.41,0.661-1.024,1.016-1.508
		c0.129-0.187,0.266-0.379,0.386-0.578c0.328-0.511,0.762-0.898,1.008-1.492c0.062-0.133,0.129-0.262,0.129-0.457
		c0.52-1.238,0.715-2.668,0.715-4.297c0-1.626-0.262-3.188-0.782-4.489C288.047,263.509,287.332,262.342,286.419,261.427z
		 M282.711,269.369c0,1.691-0.457,2.992-1.305,3.906c-0.91,0.91-1.949,1.363-3.316,1.363c-1.367,0-2.539-0.454-3.383-1.363
		c-0.914-0.914-1.305-2.215-1.305-3.906c0-1.692,0.39-3.059,1.305-3.906c0.844-0.91,2.016-1.367,3.383-1.367
		c1.367,0,2.538,0.457,3.382,1.367C282.321,266.439,282.711,267.74,282.711,269.369z" style="fill: rgb(75, 75, 75);"></path>
	<polygon class="st0" points="90.852,341.963 90.852,341.803 67.813,341.803 67.813,353.455 74.129,353.455 74.129,347.724 
		81.293,347.724 83.672,347.779 75.098,369.807 71.915,377.83 71.977,377.83 71.915,377.986 79.137,377.986 90.852,347.724 
		90.852,341.998 90.855,341.963 	" style="fill: rgb(75, 75, 75);"></polygon>
	<path class="st0" d="M167.583,372.131c0.652,1.367,1.496,2.473,2.538,3.382c0.391,0.329,0.844,0.653,1.301,0.977
		c0.715,0.457,1.497,0.848,2.41,1.106c1.43,0.457,2.926,0.718,4.489,0.718c1.562,0,3.058-0.262,4.492-0.718
		c1.43-0.453,2.668-1.168,3.707-2.082c0.976-0.91,1.89-2.015,2.472-3.382c0.586-1.367,0.914-2.93,0.914-4.687
		c0-1.106-0.133-2.082-0.39-2.864c-0.328-0.843-0.653-1.625-1.172-2.339c-0.457-0.653-0.91-1.172-1.496-1.695
		c-0.458-0.454-1.043-0.844-1.5-1.234c0.39-0.262,0.847-0.653,1.367-1.106c0.523-0.524,0.976-1.043,1.305-1.695
		c0.39-0.582,0.781-1.301,1.038-2.016c0.196-0.848,0.325-1.691,0.325-2.668c0-1.629-0.325-2.996-0.844-4.297
		c-0.218-0.481-0.61-0.785-0.894-1.203c-0.164-0.25-0.352-0.504-0.547-0.742c-0.343-0.418-0.574-0.941-0.969-1.308
		c-1.039-0.91-2.144-1.626-3.511-2.016c-1.367-0.523-2.801-0.782-4.297-0.782c-1.563,0-2.993,0.258-4.294,0.782
		c-1.367,0.39-2.539,1.106-3.582,2.016c-0.458,0.457-0.91,0.914-1.234,1.434c-0.457,0.519-0.848,1.171-1.172,1.82
		c-0.586,1.301-0.91,2.668-0.91,4.297c0,0.977,0.195,1.82,0.454,2.668c0.195,0.652,0.457,1.367,0.847,1.886
		c0,0.066,0.062,0.066,0.062,0.13c0.391,0.652,0.848,1.171,1.305,1.695c0.446,0.39,0.832,0.691,1.223,0.945
		c0.062,0.062,0.125,0.114,0.187,0.176c-0.516,0.386-1.027,0.77-1.477,1.219c-0.586,0.523-1.042,1.042-1.496,1.695
		c-0.457,0.714-0.781,1.496-1.106,2.339c-0.262,0.782-0.457,1.758-0.457,2.864c0,1.238,0.195,2.41,0.519,3.449
		C167.258,371.349,167.387,371.74,167.583,372.131z M177.083,347.595c0.39-0.066,0.781-0.129,1.238-0.129
		c1.238,0,2.214,0.39,3.058,1.172c0.066,0.062,0.066,0.062,0.133,0.129c0.843,0.91,1.301,2.015,1.301,3.254
		c0,1.367-0.458,2.406-1.301,3.321c-0.848,0.843-1.89,1.234-3.191,1.234c-0.391,0-0.848-0.066-1.172-0.13
		c-0.844-0.195-1.496-0.519-2.082-1.105c-0.652-0.719-1.039-1.5-1.234-2.41c-0.066-0.258-0.066-0.586-0.066-0.91
		c0-1.238,0.457-2.343,1.301-3.254C175.653,348.181,176.305,347.791,177.083,347.595z M178.321,372.392
		c-1.238,0-2.406-0.39-3.254-1.172c-0.129-0.066-0.195-0.133-0.324-0.262c-0.977-0.977-1.434-2.148-1.434-3.578
		c0-1.434,0.457-2.605,1.434-3.582c0.91-0.973,2.145-1.43,3.578-1.43c0.91,0,1.758,0.195,2.472,0.586
		c0.391,0.258,0.719,0.52,1.043,0.844c0.977,0.977,1.496,2.148,1.496,3.582c0,1.43-0.519,2.602-1.496,3.578
		C180.926,371.869,179.755,372.392,178.321,372.392z" style="fill: rgb(75, 75, 75);"></path>
	<path class="st0" d="M270.411,360.678c0.91,0.91,1.953,1.625,3.125,2.148c1.106,0.453,2.34,0.649,3.512,0.649
		c0.457,0,0.91,0,1.367-0.066c0.355-0.051,0.714-0.141,1.074-0.254c0.031,0,0.05-0.008,0.086-0.008c0.054,0,0.114,0.004,0.172,0.004
		l-4.066,8.07l-2.797,5.465l-0.406,0.813l-0.246,0.332h0.082l-0.082,0.156h1.629h5.598l0.843-1.691l6.77-13.926
		c0.848-1.691,1.562-3.254,2.149-4.817c0.519-1.562,0.843-3.187,0.843-4.878c0-0.586,0-1.172-0.129-1.696
		c-0.066-1.105-0.324-2.148-0.714-3.058c-0.195-0.476-0.562-0.75-0.801-1.168c-0.266-0.465-0.559-0.89-0.875-1.277
		c-0.27-0.325-0.418-0.794-0.734-1.066c-1.039-0.977-2.211-1.696-3.578-2.149c-1.367-0.523-2.863-0.782-4.492-0.782
		c-1.496,0-3.058,0.258-4.359,0.782c-0.582,0.211-0.981,0.618-1.485,0.902c-0.222,0.125-0.465,0.262-0.687,0.414
		c-0.473,0.316-1.05,0.5-1.473,0.894c-0.457,0.523-0.977,1.042-1.367,1.629c-0.39,0.586-0.714,1.234-0.977,1.953
		c-0.586,1.43-0.91,2.926-0.91,4.684c0,1.758,0.324,3.254,0.847,4.621C268.848,358.658,269.563,359.767,270.411,360.678z
		 M276.79,347.857c0.582-0.262,1.234-0.39,1.949-0.39c1.367,0,2.539,0.453,3.386,1.363c0.13,0.133,0.196,0.262,0.258,0.39
		c0.781,0.848,1.109,2.02,1.109,3.516c0,1.691-0.457,2.992-1.367,3.906c-0.847,0.91-2.019,1.367-3.386,1.367
		c-1.367,0-2.535-0.458-3.382-1.434c-0.782-0.91-1.234-2.211-1.234-3.84c0-1.692,0.453-2.992,1.301-3.906
		C275.813,348.443,276.266,348.115,276.79,347.857z" style="fill: rgb(75, 75, 75);"></path>
	<path class="st0" d="M176.239,234.353c-15.621,0-28.313,12.238-29.09,27.66c-0.066,0.458-0.066,0.977-0.066,1.496v30.329h58.246
		v-30.329C205.328,247.435,192.313,234.353,176.239,234.353z M189.579,275.81v2.278h-16.008h-10.805v-14.578
		c0-0.324,0-0.586,0.066-0.91l14.25,7.031l5.926,2.926l5.793,2.863L189.579,275.81z" style="fill: rgb(75, 75, 75);"></path>
</g>
</svg>
