<svg xmlns="http://www.w3.org/2000/svg" xmlns:xlink="http://www.w3.org/1999/xlink" width="500" zoomAndPan="magnify" viewBox="0 0 375 374.999991" height="500" preserveAspectRatio="xMidYMid meet" version="1.0"><rect x="-37.5" width="450" fill="#ffffff" y="-37.499999" height="449.999989" fill-opacity="1"/><rect x="-37.5" width="450" fill="#ffffff" y="-37.499999" height="449.999989" fill-opacity="1"/><path fill="#545141" d="M 148.125 311.730469 C 109.402344 299.914062 78.742188 268.3125 68.105469 229.261719 C 66.792969 224.457031 61.835938 221.609375 57.035156 222.933594 C 52.230469 224.246094 49.398438 229.203125 50.707031 234.011719 C 62.960938 278.988281 98.269531 315.382812 142.859375 328.992188 C 143.734375 329.261719 144.621094 329.390625 145.492188 329.390625 C 149.355469 329.390625 152.925781 326.882812 154.113281 322.992188 C 155.570312 318.230469 152.882812 313.1875 148.125 311.730469 Z M 148.125 311.730469 " fill-opacity="1" fill-rule="nonzero"/><path fill="#545141" d="M 58.917969 139.101562 C 56.785156 143.605469 58.710938 148.984375 63.210938 151.117188 C 67.714844 153.25 73.085938 151.324219 75.214844 146.820312 C 94.851562 105.320312 137.160156 78.507812 182.992188 78.507812 C 248.675781 78.507812 302.117188 131.984375 302.117188 197.71875 C 302.117188 243.589844 275.324219 285.925781 233.851562 305.574219 C 229.347656 307.707031 227.429688 313.082031 229.5625 317.585938 C 231.101562 320.847656 234.339844 322.753906 237.714844 322.75 C 239.007812 322.75 240.320312 322.46875 241.5625 321.882812 C 289.300781 299.261719 320.148438 250.527344 320.148438 197.71875 C 320.148438 122.035156 258.625 60.464844 182.992188 60.464844 C 130.222656 60.464844 81.523438 91.328125 58.917969 139.101562 Z M 58.917969 139.101562 " fill-opacity="1" fill-rule="nonzero"/><path fill="#ffbd1f" d="M 349.054688 242.378906 C 346.925781 237.875 341.570312 235.957031 337.050781 238.085938 C 332.550781 240.222656 330.632812 245.597656 332.761719 250.101562 C 353.351562 293.613281 355.957031 329.289062 339.71875 345.53125 C 323.46875 361.789062 287.820312 359.175781 244.339844 338.5625 C 206.347656 320.652344 164.933594 290.273438 127.722656 253.03125 C 90.496094 215.773438 60.140625 174.328125 42.242188 136.3125 C 21.652344 92.804688 19.050781 57.125 35.285156 40.878906 C 51.523438 24.628906 87.175781 27.230469 130.652344 47.839844 C 135.152344 49.976562 140.527344 48.046875 142.65625 43.546875 C 144.789062 39.042969 142.871094 33.667969 138.367188 31.527344 C 86.183594 6.800781 45.046875 5.589844 22.535156 28.125 C 0.0234375 50.648438 1.234375 91.816406 25.9375 144.019531 C 44.695312 183.859375 76.3125 227.101562 114.96875 265.789062 C 153.613281 304.46875 196.828125 336.113281 236.636719 354.882812 C 264.003906 367.855469 288.332031 374.355469 308.527344 374.355469 C 326.839844 374.351562 341.757812 369.003906 352.464844 358.289062 C 374.976562 335.761719 373.765625 294.597656 349.054688 242.378906 Z M 349.054688 242.378906 " fill-opacity="1" fill-rule="nonzero"/></svg>